<mxfile host="app.diagrams.net" modified="2022-05-07T04:13:38.237Z" agent="5.0 (Windows NT 10.0; Win64; x64) AppleWebKit/537.36 (KHTML, like Gecko) Chrome/100.0.4896.127 Safari/537.36" etag="TVFye_JtfqqEYUUGv2YN" version="18.0.1" type="github">
  <diagram id="66cccoRDrbyXjYgNR0cn" name="Page-1">
    <mxGraphModel dx="1420" dy="1264" grid="1" gridSize="10" guides="1" tooltips="1" connect="1" arrows="1" fold="1" page="1" pageScale="1" pageWidth="850" pageHeight="1100" math="0" shadow="0">
      <root>
        <mxCell id="0" />
        <mxCell id="1" parent="0" />
        <mxCell id="6yedTK-UhP8KbGtNIMfZ-2" value="" style="rounded=0;whiteSpace=wrap;html=1;" parent="1" vertex="1">
          <mxGeometry x="260" y="390" width="380" height="210" as="geometry" />
        </mxCell>
        <mxCell id="6yedTK-UhP8KbGtNIMfZ-3" value="LED Array" style="rounded=0;whiteSpace=wrap;html=1;" parent="1" vertex="1">
          <mxGeometry x="670" y="412.5" width="60" height="67.5" as="geometry" />
        </mxCell>
        <mxCell id="6yedTK-UhP8KbGtNIMfZ-18" style="edgeStyle=orthogonalEdgeStyle;rounded=0;orthogonalLoop=1;jettySize=auto;html=1;exitX=1;exitY=0.5;exitDx=0;exitDy=0;entryX=0;entryY=0.321;entryDx=0;entryDy=0;entryPerimeter=0;strokeColor=default;" parent="1" source="6yedTK-UhP8KbGtNIMfZ-4" target="6yedTK-UhP8KbGtNIMfZ-2" edge="1">
          <mxGeometry relative="1" as="geometry" />
        </mxCell>
        <mxCell id="6yedTK-UhP8KbGtNIMfZ-4" value="Push Button" style="rounded=0;whiteSpace=wrap;html=1;" parent="1" vertex="1">
          <mxGeometry x="150" y="442.5" width="70" height="30" as="geometry" />
        </mxCell>
        <mxCell id="6yedTK-UhP8KbGtNIMfZ-7" value="GPIO" style="rounded=0;whiteSpace=wrap;html=1;" parent="1" vertex="1">
          <mxGeometry x="270" y="420" width="60" height="75" as="geometry" />
        </mxCell>
        <mxCell id="6yedTK-UhP8KbGtNIMfZ-9" value="Logging" style="rounded=0;whiteSpace=wrap;html=1;" parent="1" vertex="1">
          <mxGeometry x="490" y="535" width="60" height="35" as="geometry" />
        </mxCell>
        <mxCell id="6yedTK-UhP8KbGtNIMfZ-14" style="edgeStyle=orthogonalEdgeStyle;rounded=0;orthogonalLoop=1;jettySize=auto;html=1;exitX=1;exitY=0.5;exitDx=0;exitDy=0;strokeColor=default;" parent="1" source="6yedTK-UhP8KbGtNIMfZ-10" edge="1">
          <mxGeometry relative="1" as="geometry">
            <mxPoint x="680" y="553" as="targetPoint" />
          </mxGeometry>
        </mxCell>
        <mxCell id="6yedTK-UhP8KbGtNIMfZ-10" value="SPI" style="rounded=0;whiteSpace=wrap;html=1;" parent="1" vertex="1">
          <mxGeometry x="580" y="535" width="60" height="35" as="geometry" />
        </mxCell>
        <mxCell id="6yedTK-UhP8KbGtNIMfZ-21" style="edgeStyle=orthogonalEdgeStyle;rounded=0;orthogonalLoop=1;jettySize=auto;html=1;exitX=1;exitY=0.5;exitDx=0;exitDy=0;entryX=0;entryY=0.5;entryDx=0;entryDy=0;strokeColor=default;" parent="1" source="6yedTK-UhP8KbGtNIMfZ-11" target="6yedTK-UhP8KbGtNIMfZ-3" edge="1">
          <mxGeometry relative="1" as="geometry" />
        </mxCell>
        <mxCell id="6yedTK-UhP8KbGtNIMfZ-11" value="PWM" style="rounded=0;whiteSpace=wrap;html=1;" parent="1" vertex="1">
          <mxGeometry x="580" y="417.5" width="60" height="57.5" as="geometry" />
        </mxCell>
        <mxCell id="6yedTK-UhP8KbGtNIMfZ-12" value="Timer Control" style="rounded=0;whiteSpace=wrap;html=1;" parent="1" vertex="1">
          <mxGeometry x="420" y="407.5" width="60" height="35" as="geometry" />
        </mxCell>
        <mxCell id="6yedTK-UhP8KbGtNIMfZ-13" value="Serial to Host" style="rounded=0;whiteSpace=wrap;html=1;" parent="1" vertex="1">
          <mxGeometry x="680" y="533" width="60" height="35" as="geometry" />
        </mxCell>
        <mxCell id="6yedTK-UhP8KbGtNIMfZ-15" value="ISR" style="rounded=0;whiteSpace=wrap;html=1;" parent="1" vertex="1">
          <mxGeometry x="340" y="427.5" width="70" height="60" as="geometry" />
        </mxCell>
        <mxCell id="6yedTK-UhP8KbGtNIMfZ-16" value="I2C" style="rounded=0;whiteSpace=wrap;html=1;fillColor=#dae8fc;strokeColor=#6c8ebf;" parent="1" vertex="1">
          <mxGeometry x="270" y="533" width="60" height="35" as="geometry" />
        </mxCell>
        <mxCell id="6yedTK-UhP8KbGtNIMfZ-20" style="edgeStyle=orthogonalEdgeStyle;rounded=0;orthogonalLoop=1;jettySize=auto;html=1;exitX=1;exitY=0.5;exitDx=0;exitDy=0;strokeColor=default;" parent="1" source="6yedTK-UhP8KbGtNIMfZ-19" edge="1">
          <mxGeometry relative="1" as="geometry">
            <mxPoint x="259.97" y="552.5714285714287" as="targetPoint" />
          </mxGeometry>
        </mxCell>
        <mxCell id="6yedTK-UhP8KbGtNIMfZ-19" value="Moisture detector" style="rounded=0;whiteSpace=wrap;html=1;fillColor=#dae8fc;strokeColor=#6c8ebf;" parent="1" vertex="1">
          <mxGeometry x="164.97" y="535" width="60" height="35" as="geometry" />
        </mxCell>
        <mxCell id="6yedTK-UhP8KbGtNIMfZ-22" style="edgeStyle=orthogonalEdgeStyle;rounded=0;orthogonalLoop=1;jettySize=auto;html=1;exitX=1;exitY=0.5;exitDx=0;exitDy=0;entryX=0;entryY=0.5;entryDx=0;entryDy=0;strokeColor=default;" parent="1" edge="1">
          <mxGeometry relative="1" as="geometry">
            <mxPoint x="640" y="457.21" as="sourcePoint" />
            <mxPoint x="670" y="457.21" as="targetPoint" />
          </mxGeometry>
        </mxCell>
        <mxCell id="6yedTK-UhP8KbGtNIMfZ-23" style="edgeStyle=orthogonalEdgeStyle;rounded=0;orthogonalLoop=1;jettySize=auto;html=1;exitX=1;exitY=0.5;exitDx=0;exitDy=0;entryX=0;entryY=0.5;entryDx=0;entryDy=0;strokeColor=default;" parent="1" edge="1">
          <mxGeometry relative="1" as="geometry">
            <mxPoint x="640" y="467.21000000000026" as="sourcePoint" />
            <mxPoint x="670" y="467.21000000000026" as="targetPoint" />
          </mxGeometry>
        </mxCell>
      </root>
    </mxGraphModel>
  </diagram>
</mxfile>
